<?xml version="1.0" encoding="utf-8"?>
<!-- Generator: Adobe Illustrator 19.2.0, SVG Export Plug-In . SVG Version: 6.00 Build 0)  -->
<svg version="1.1" id="Layer_1" xmlns="http://www.w3.org/2000/svg" xmlns:xlink="http://www.w3.org/1999/xlink" x="0px" y="0px"
	 viewBox="0 0 200 154" style="enable-background:new 0 0 200 154;" xml:space="preserve">
<style type="text/css">
	.st0{fill:#020304;}
</style>
<g>
	<path class="st0" d="M175,59.8c-0.6-2.9-3.5-4.6-6.3-4c-2.9,0.6-4.6,3.5-4,6.3c1.1,4.8,1.7,9.9,1.7,14.8
		c0,36.7-29.7,66.4-66.4,66.4c-36.7,0.2-66.4-29.6-66.4-66.2S63.3,10.6,100,10.6c5.7,0,11.2,0.8,16.6,2.2c2.8,0.8,5.7-0.9,6.5-3.9
		c0.8-2.8-0.9-5.7-3.8-6.5C112.9,0.8,106.5,0,100,0C57.5,0,23,34.5,23,77s34.5,77,77,77s77-34.5,77-77C177,71.1,176.4,65.4,175,59.8
		z"/>
	<path class="st0" d="M68.1,72.5c-2.2-2.2-5.5-2.2-7.7,0c-2.2,2.2-2.2,5.5,0,7.7l25.1,25.1c1.1,1.1,2.5,1.5,3.9,1.5
		c0.2,0,0.2,0,0.3,0c1.4-0.2,2.9-0.8,4-2l62.8-75.3c1.8-2.3,1.5-5.7-0.6-7.7c-2.3-1.8-5.7-1.5-7.7,0.6L89.1,93.3L68.1,72.5z"/>
</g>
</svg>
